<svg xmlns="http://www.w3.org/2000/svg" version="1.1" width="512" height="512" x="0" y="0" viewBox="0 0 64 64" xml:space="preserve"><g>
    <path d="M59.9 22.2c.2.7.2 1.6-.6 2.3-3.4 2.9-7.8 4.9-13.2 5.9l-.1-9.6h11.9c1.1.1 1.8.8 2 1.4zM38.8 40l4.8 3.2c.6.4.5 1 .4 1.2s-.3.8-1 .8H15.6c-.7 0-.9-.5-1-.7s-.2-.7.3-1.2l3.8-3.2c.7-.6 1.1-1.4 1.1-2.3v-5.3c0-.8-.3-1.5-.7-2-3-3.4-7.7-6-14.3-8-.5-.1-.8-.6-.8-1V20c0-.6.5-1.1 1.1-1.1h38c.6 0 1.1.5 1.1 1.1l.1 12.2c0 .3-.1.6-.3.8s-.5.3-.8.3h-2.6c-1.7 0-3.1 1.4-3.1 3.1v1.2c-.1.9.5 1.9 1.3 2.4z" fill="#000000" opacity="1"  class="hovered-path custom-cursor-on-hover"></path></g></svg>